<?xml version="1.0" encoding="utf-8"?>
<!-- Generator: Adobe Illustrator 17.1.0, SVG Export Plug-In . SVG Version: 6.00 Build 0)  -->
<!DOCTYPE svg PUBLIC "-//W3C//DTD SVG 1.1//EN" "http://www.w3.org/Graphics/SVG/1.1/DTD/svg11.dtd">
<svg version="1.1" id="Layer_1" xmlns="http://www.w3.org/2000/svg" xmlns:xlink="http://www.w3.org/1999/xlink" x="0px" y="0px"
	 viewBox="0 0 557 557" enable-background="new 0 0 557 557" xml:space="preserve">
<g>
	<path fill="#8E8E8E" d="M278.5,25C418.5,25,532,138.5,532,278.5c0,140-113.5,253.5-253.5,253.5S25,418.5,25,278.5
		C25,138.5,138.5,25,278.5,25 M278.5,0c-37.6,0-74.1,7.4-108.4,21.9c-33.2,14-62.9,34.1-88.5,59.7s-45.6,55.4-59.7,88.5
		C7.4,204.4,0,240.9,0,278.5s7.4,74.1,21.9,108.4c14,33.2,34.1,62.9,59.7,88.5c25.6,25.6,55.4,45.6,88.5,59.7
		c34.4,14.5,70.8,21.9,108.4,21.9s74.1-7.4,108.4-21.9c33.2-14,62.9-34.1,88.5-59.7c25.6-25.6,45.6-55.4,59.7-88.5
		c14.5-34.4,21.9-70.8,21.9-108.4s-7.4-74.1-21.9-108.4c-14-33.2-34.1-62.9-59.7-88.5c-25.6-25.6-55.4-45.6-88.5-59.7
		C352.6,7.4,316.1,0,278.5,0L278.5,0z"/>
</g>
<g>
	<path fill="#8E8E8E" d="M277.7,268.7c5.7,0,10.3,4.6,10.3,10.3s-4.6,10.3-10.3,10.3c-5.7,0-10.3-4.6-10.3-10.3
		S272,268.7,277.7,268.7 M277.7,253.7c-14,0-25.3,11.3-25.3,25.3s11.3,25.3,25.3,25.3S303,293,303,279S291.7,253.7,277.7,253.7
		L277.7,253.7z"/>
</g>
<line fill="none" stroke="#8E8E8E" stroke-width="3" stroke-miterlimit="10" x1="237.7" y1="19.7" x2="256.3" y2="267"/>
<line fill="none" stroke="#8E8E8E" stroke-width="3" stroke-miterlimit="10" x1="306.7" y1="19.7" x2="295" y2="271.7"/>
<line fill="none" stroke="#8E8E8E" stroke-width="3" stroke-miterlimit="10" x1="376.3" y1="36.3" x2="295" y2="279"/>
<line fill="none" stroke="#8E8E8E" stroke-width="3" stroke-miterlimit="10" x1="433.7" y1="72.3" x2="270.1" y2="256.5"/>
<line fill="none" stroke="#8E8E8E" stroke-width="3" stroke-miterlimit="10" x1="177" y1="41.7" x2="256.7" y2="277.5"/>
<line fill="none" stroke="#8E8E8E" stroke-width="3" stroke-miterlimit="10" x1="119" y1="72.3" x2="283.7" y2="260.3"/>
<line fill="none" stroke="#8E8E8E" stroke-width="3" stroke-miterlimit="10" x1="73.7" y1="124" x2="291" y2="264.3"/>
<line fill="none" stroke="#8E8E8E" stroke-width="3" stroke-miterlimit="10" x1="37" y1="183.7" x2="260.3" y2="293"/>
<line fill="none" stroke="#8E8E8E" stroke-width="3" stroke-miterlimit="10" x1="19.7" y1="314.3" x2="264.3" y2="265.3"/>
<line fill="none" stroke="#8E8E8E" stroke-width="3" stroke-miterlimit="10" x1="19.7" y1="246.7" x2="264.3" y2="296.3"/>
<line fill="none" stroke="#8E8E8E" stroke-width="3" stroke-miterlimit="10" x1="40.3" y1="382" x2="264.3" y2="266.3"/>
<line fill="none" stroke="#8E8E8E" stroke-width="3" stroke-miterlimit="10" x1="76.7" y1="437.3" x2="282.7" y2="300.7"/>
<line fill="none" stroke="#8E8E8E" stroke-width="3" stroke-miterlimit="10" x1="121.1" y1="483.3" x2="286" y2="299.7"/>
<line fill="none" stroke="#8E8E8E" stroke-width="3" stroke-miterlimit="10" x1="180.3" y1="515.7" x2="258.7" y2="281.7"/>
<line fill="none" stroke="#8E8E8E" stroke-width="3" stroke-miterlimit="10" x1="246.7" y1="534" x2="257.3" y2="272.7"/>
<line fill="none" stroke="#8E8E8E" stroke-width="3" stroke-miterlimit="10" x1="319.7" y1="532" x2="301" y2="289"/>
<line fill="none" stroke="#8E8E8E" stroke-width="3" stroke-miterlimit="10" x1="376.3" y1="515.7" x2="301" y2="281.7"/>
<line fill="none" stroke="#8E8E8E" stroke-width="3" stroke-miterlimit="10" x1="437.7" y1="483.3" x2="270.1" y2="296.3"/>
<line fill="none" stroke="#8E8E8E" stroke-width="3" stroke-miterlimit="10" x1="484" y1="434" x2="271.1" y2="298.7"/>
<line fill="none" stroke="#8E8E8E" stroke-width="3" stroke-miterlimit="10" x1="517.7" y1="373.7" x2="296" y2="265"/>
<line fill="none" stroke="#8E8E8E" stroke-width="3" stroke-miterlimit="10" x1="535" y1="311" x2="291.7" y2="261.3"/>
<line fill="none" stroke="#8E8E8E" stroke-width="3" stroke-miterlimit="10" x1="535" y1="243" x2="289" y2="293"/>
<line fill="none" stroke="#8E8E8E" stroke-width="3" stroke-miterlimit="10" x1="513.7" y1="176.3" x2="294" y2="291"/>
<line fill="none" stroke="#8E8E8E" stroke-width="3" stroke-miterlimit="10" x1="480" y1="117.7" x2="271" y2="259.5"/>
</svg>
